<svg width="581" height="272" viewBox="0 0 581 272" fill="none" xmlns="http://www.w3.org/2000/svg">
<path d="M1 18.1758C1 15.1721 1.79364 12.1665 3.32293 9.55888C4.79625 6.95121 7.00724 4.79743 9.61403 3.26763C12.2208 1.79382 15.1675 0.999975 18.1701 0.999975H562.964C565.967 0.999975 568.972 1.79385 571.578 3.32365C574.185 4.79746 576.338 7.00919 577.867 9.61685C579.341 12.2245 580.134 15.1721 580.134 18.1758L580.19 253.818C580.19 256.821 579.397 259.827 577.867 262.434C576.394 265.042 574.185 267.196 571.578 268.726C568.972 270.199 566.025 270.993 563.02 270.993L18.1701 271.049C15.1675 271.049 12.1629 270.257 9.55806 268.726C6.95126 267.252 4.79625 265.042 3.26696 262.434C1.79364 259.827 1 256.879 1 253.873V18.1758Z" stroke="white" stroke-width="0.286996" stroke-miterlimit="3.8637"/>
</svg>
